<svg xmlns="http://www.w3.org/2000/svg" version="1.1" xmlns:xlink="http://www.w3.org/1999/xlink" width="1000" height="1000"><g clip-path="url(#SvgjsClipPath1163)"><rect width="1000" height="1000" fill="#ffffff"></rect><g transform="matrix(2,0,0,2,0,0)"><svg xmlns="http://www.w3.org/2000/svg" version="1.1" xmlns:xlink="http://www.w3.org/1999/xlink" width="500" height="500"><svg xmlns="http://www.w3.org/2000/svg" xmlns:xlink="http://www.w3.org/1999/xlink" width="500" zoomAndPan="magnify" viewBox="0 0 375 374.999991" height="500" preserveAspectRatio="xMidYMid meet" version="1.0"><defs><g></g><clipPath id="b459bfd93b"><rect x="0" width="150" y="0" height="165"></rect></clipPath><clipPath id="bebbd9d50e"><rect x="0" width="197" y="0" height="172"></rect></clipPath><clipPath id="SvgjsClipPath1163"><rect width="1000" height="1000" x="0" y="0" rx="400" ry="400"></rect></clipPath></defs><g transform="matrix(1, 0, 0, 1, 96, 105)"><g clip-path="url(#b459bfd93b)"><g fill="#928b8b" fill-opacity="0.4"><g transform="translate(43.186008, 122.391897)"><g><path d="M 102.296875 32.53125 C 101.109375 32.632812 99.972656 32.710938 98.890625 32.765625 C 97.804688 32.828125 96.664062 32.859375 95.46875 32.859375 C 87.226562 32.859375 80.070312 30.90625 74 27 C 67.925781 23.09375 62.53125 18.019531 57.8125 11.78125 C 53.101562 5.550781 48.90625 -1.488281 45.21875 -9.34375 C 41.53125 -17.207031 38.003906 -25.125 34.640625 -33.09375 C 31.273438 -41.0625 27.882812 -48.675781 24.46875 -55.9375 C 21.0625 -63.207031 17.296875 -69.390625 13.171875 -74.484375 L 13.171875 -12.03125 C 13.171875 -8.882812 14.035156 -6.304688 15.765625 -4.296875 C 17.503906 -2.296875 19.785156 -0.863281 22.609375 0 L 2.921875 0 C 8.890625 -1.84375 11.875 -5.851562 11.875 -12.03125 L 11.875 -75.953125 C 8.082031 -80.503906 3.53125 -84.378906 -1.78125 -87.578125 C -7.101562 -90.773438 -12.796875 -92.375 -18.859375 -92.375 C -21.242188 -92.375 -23.578125 -92.179688 -25.859375 -91.796875 C -28.140625 -91.421875 -30.363281 -90.960938 -32.53125 -90.421875 L -33.015625 -91.5625 C -27.804688 -93.082031 -22.546875 -93.84375 -17.234375 -93.84375 C -10.410156 -93.84375 -4.234375 -92.648438 1.296875 -90.265625 C 6.828125 -87.878906 11.84375 -84.679688 16.34375 -80.671875 C 20.84375 -76.660156 24.851562 -72.023438 28.375 -66.765625 C 31.90625 -61.503906 35.101562 -56 37.96875 -50.25 C 40.84375 -44.507812 43.5 -38.710938 45.9375 -32.859375 C 48.382812 -27.003906 50.691406 -21.472656 52.859375 -16.265625 L 81.640625 -79.6875 L 96.28125 -79.6875 C 94.007812 -79.039062 92.460938 -77.769531 91.640625 -75.875 C 90.828125 -73.976562 90.421875 -71.941406 90.421875 -69.765625 L 90.421875 -10.40625 C 90.421875 -8.238281 90.800781 -6.148438 91.5625 -4.140625 C 92.320312 -2.140625 93.894531 -0.757812 96.28125 0 L 74.65625 0 C 77.039062 -0.644531 78.609375 -2 79.359375 -4.0625 C 80.117188 -6.125 80.5 -8.238281 80.5 -10.40625 L 80.5 -74.484375 L 53.515625 -14.796875 C 55.242188 -10.347656 57.300781 -5.441406 59.6875 -0.078125 C 62.070312 5.285156 64.890625 10.296875 68.140625 14.953125 C 71.398438 19.617188 75.222656 23.523438 79.609375 26.671875 C 84.003906 29.816406 89.019531 31.390625 94.65625 31.390625 C 95.957031 31.390625 97.226562 31.363281 98.46875 31.3125 C 99.71875 31.257812 100.941406 31.125 102.140625 30.90625 Z M 102.296875 32.53125 "></path></g></g></g><g fill="#928b8b" fill-opacity="1"><g transform="translate(35.997511, 115.203396)"><g><path d="M 102.296875 32.53125 C 101.109375 32.632812 99.972656 32.710938 98.890625 32.765625 C 97.804688 32.828125 96.664062 32.859375 95.46875 32.859375 C 87.226562 32.859375 80.070312 30.90625 74 27 C 67.925781 23.09375 62.53125 18.019531 57.8125 11.78125 C 53.101562 5.550781 48.90625 -1.488281 45.21875 -9.34375 C 41.53125 -17.207031 38.003906 -25.125 34.640625 -33.09375 C 31.273438 -41.0625 27.882812 -48.675781 24.46875 -55.9375 C 21.0625 -63.207031 17.296875 -69.390625 13.171875 -74.484375 L 13.171875 -12.03125 C 13.171875 -8.882812 14.035156 -6.304688 15.765625 -4.296875 C 17.503906 -2.296875 19.785156 -0.863281 22.609375 0 L 2.921875 0 C 8.890625 -1.84375 11.875 -5.851562 11.875 -12.03125 L 11.875 -75.953125 C 8.082031 -80.503906 3.53125 -84.378906 -1.78125 -87.578125 C -7.101562 -90.773438 -12.796875 -92.375 -18.859375 -92.375 C -21.242188 -92.375 -23.578125 -92.179688 -25.859375 -91.796875 C -28.140625 -91.421875 -30.363281 -90.960938 -32.53125 -90.421875 L -33.015625 -91.5625 C -27.804688 -93.082031 -22.546875 -93.84375 -17.234375 -93.84375 C -10.410156 -93.84375 -4.234375 -92.648438 1.296875 -90.265625 C 6.828125 -87.878906 11.84375 -84.679688 16.34375 -80.671875 C 20.84375 -76.660156 24.851562 -72.023438 28.375 -66.765625 C 31.90625 -61.503906 35.101562 -56 37.96875 -50.25 C 40.84375 -44.507812 43.5 -38.710938 45.9375 -32.859375 C 48.382812 -27.003906 50.691406 -21.472656 52.859375 -16.265625 L 81.640625 -79.6875 L 96.28125 -79.6875 C 94.007812 -79.039062 92.460938 -77.769531 91.640625 -75.875 C 90.828125 -73.976562 90.421875 -71.941406 90.421875 -69.765625 L 90.421875 -10.40625 C 90.421875 -8.238281 90.800781 -6.148438 91.5625 -4.140625 C 92.320312 -2.140625 93.894531 -0.757812 96.28125 0 L 74.65625 0 C 77.039062 -0.644531 78.609375 -2 79.359375 -4.0625 C 80.117188 -6.125 80.5 -8.238281 80.5 -10.40625 L 80.5 -74.484375 L 53.515625 -14.796875 C 55.242188 -10.347656 57.300781 -5.441406 59.6875 -0.078125 C 62.070312 5.285156 64.890625 10.296875 68.140625 14.953125 C 71.398438 19.617188 75.222656 23.523438 79.609375 26.671875 C 84.003906 29.816406 89.019531 31.390625 94.65625 31.390625 C 95.957031 31.390625 97.226562 31.363281 98.46875 31.3125 C 99.71875 31.257812 100.941406 31.125 102.140625 30.90625 Z M 102.296875 32.53125 "></path></g></g></g></g></g><g transform="matrix(1, 0, 0, 1, 169, 74)"><g clip-path="url(#bebbd9d50e)"><g fill="#928b8b" fill-opacity="0.4"><g transform="translate(8.276238, 127.934756)"><g><path d="M 143.140625 6.3125 C 150.660156 6.3125 157.976562 7.878906 165.09375 11.015625 C 172.207031 14.148438 178.382812 18.28125 183.625 23.40625 L 183.109375 24.078125 C 177.640625 19.296875 171.660156 16.109375 165.171875 14.515625 C 158.679688 12.921875 151.90625 12.125 144.84375 12.125 C 140.0625 12.125 135.394531 12.351562 130.84375 12.8125 C 126.289062 13.269531 121.675781 13.835938 117 14.515625 L 108.984375 15.546875 C 104.304688 16.222656 99.660156 16.789062 95.046875 17.25 C 90.441406 17.707031 85.804688 17.9375 81.140625 17.9375 C 73.503906 17.9375 66.097656 17.140625 58.921875 15.546875 C 51.753906 13.953125 45.09375 11.503906 38.9375 8.203125 C 32.789062 4.898438 27.269531 0.628906 22.375 -4.609375 C 17.476562 -9.847656 13.4375 -16.113281 10.25 -23.40625 C 8.425781 -27.726562 7.03125 -32.195312 6.0625 -36.8125 C 5.09375 -41.425781 4.609375 -46.125 4.609375 -50.90625 C 4.609375 -58.1875 5.914062 -64.898438 8.53125 -71.046875 C 11.15625 -77.203125 14.773438 -82.53125 19.390625 -87.03125 C 24.003906 -91.53125 29.410156 -95.0625 35.609375 -97.625 C 41.816406 -100.1875 48.566406 -101.46875 55.859375 -101.46875 C 56.421875 -101.46875 57.015625 -101.46875 57.640625 -101.46875 C 58.273438 -101.46875 58.875 -101.410156 59.4375 -101.296875 L 62 -101.125 L 62.859375 -101.125 L 64.734375 -100.953125 C 66.785156 -100.953125 68.691406 -101.207031 70.453125 -101.71875 C 72.222656 -102.226562 73.503906 -103.625 74.296875 -105.90625 L 78.234375 -84.890625 C 76.410156 -89.109375 73.390625 -92.695312 69.171875 -95.65625 C 64.960938 -98.613281 60.523438 -100.09375 55.859375 -100.09375 C 48.679688 -100.09375 42.613281 -98.695312 37.65625 -95.90625 C 32.707031 -93.113281 28.664062 -89.441406 25.53125 -84.890625 C 22.40625 -80.335938 20.128906 -75.097656 18.703125 -69.171875 C 17.273438 -63.253906 16.5625 -57.164062 16.5625 -50.90625 C 16.5625 -41.332031 17.898438 -32.445312 20.578125 -24.25 C 23.253906 -16.050781 27.210938 -8.960938 32.453125 -2.984375 C 37.691406 2.992188 44.15625 7.691406 51.84375 11.109375 C 59.53125 14.523438 68.382812 16.234375 78.40625 16.234375 C 83.300781 16.234375 88.082031 15.832031 92.75 15.03125 C 97.414062 14.226562 102.085938 13.257812 106.765625 12.125 L 114.78125 10.421875 C 119.5625 9.285156 124.285156 8.316406 128.953125 7.515625 C 133.628906 6.710938 138.359375 6.3125 143.140625 6.3125 Z M 143.140625 6.3125 "></path></g></g></g><g fill="#928b8b" fill-opacity="1"><g transform="translate(0.726448, 120.38496)"><g><path d="M 143.140625 6.3125 C 150.660156 6.3125 157.976562 7.878906 165.09375 11.015625 C 172.207031 14.148438 178.382812 18.28125 183.625 23.40625 L 183.109375 24.078125 C 177.640625 19.296875 171.660156 16.109375 165.171875 14.515625 C 158.679688 12.921875 151.90625 12.125 144.84375 12.125 C 140.0625 12.125 135.394531 12.351562 130.84375 12.8125 C 126.289062 13.269531 121.675781 13.835938 117 14.515625 L 108.984375 15.546875 C 104.304688 16.222656 99.660156 16.789062 95.046875 17.25 C 90.441406 17.707031 85.804688 17.9375 81.140625 17.9375 C 73.503906 17.9375 66.097656 17.140625 58.921875 15.546875 C 51.753906 13.953125 45.09375 11.503906 38.9375 8.203125 C 32.789062 4.898438 27.269531 0.628906 22.375 -4.609375 C 17.476562 -9.847656 13.4375 -16.113281 10.25 -23.40625 C 8.425781 -27.726562 7.03125 -32.195312 6.0625 -36.8125 C 5.09375 -41.425781 4.609375 -46.125 4.609375 -50.90625 C 4.609375 -58.1875 5.914062 -64.898438 8.53125 -71.046875 C 11.15625 -77.203125 14.773438 -82.53125 19.390625 -87.03125 C 24.003906 -91.53125 29.410156 -95.0625 35.609375 -97.625 C 41.816406 -100.1875 48.566406 -101.46875 55.859375 -101.46875 C 56.421875 -101.46875 57.015625 -101.46875 57.640625 -101.46875 C 58.273438 -101.46875 58.875 -101.410156 59.4375 -101.296875 L 62 -101.125 L 62.859375 -101.125 L 64.734375 -100.953125 C 66.785156 -100.953125 68.691406 -101.207031 70.453125 -101.71875 C 72.222656 -102.226562 73.503906 -103.625 74.296875 -105.90625 L 78.234375 -84.890625 C 76.410156 -89.109375 73.390625 -92.695312 69.171875 -95.65625 C 64.960938 -98.613281 60.523438 -100.09375 55.859375 -100.09375 C 48.679688 -100.09375 42.613281 -98.695312 37.65625 -95.90625 C 32.707031 -93.113281 28.664062 -89.441406 25.53125 -84.890625 C 22.40625 -80.335938 20.128906 -75.097656 18.703125 -69.171875 C 17.273438 -63.253906 16.5625 -57.164062 16.5625 -50.90625 C 16.5625 -41.332031 17.898438 -32.445312 20.578125 -24.25 C 23.253906 -16.050781 27.210938 -8.960938 32.453125 -2.984375 C 37.691406 2.992188 44.15625 7.691406 51.84375 11.109375 C 59.53125 14.523438 68.382812 16.234375 78.40625 16.234375 C 83.300781 16.234375 88.082031 15.832031 92.75 15.03125 C 97.414062 14.226562 102.085938 13.257812 106.765625 12.125 L 114.78125 10.421875 C 119.5625 9.285156 124.285156 8.316406 128.953125 7.515625 C 133.628906 6.710938 138.359375 6.3125 143.140625 6.3125 Z M 143.140625 6.3125 "></path></g></g></g></g></g><g fill="#928b8b" fill-opacity="1"><g transform="translate(122.679284, 295.815713)"><g><path d="M 0.875 -8.140625 L 4.125 -8.140625 C 4.664062 -8.140625 5.109375 -8.035156 5.453125 -7.828125 C 5.796875 -7.617188 6.039062 -7.351562 6.1875 -7.03125 C 6.34375 -6.71875 6.421875 -6.394531 6.421875 -6.0625 C 6.421875 -5.71875 6.34375 -5.414062 6.1875 -5.15625 C 6.039062 -4.90625 5.863281 -4.707031 5.65625 -4.5625 C 5.445312 -4.425781 5.25 -4.335938 5.0625 -4.296875 L 5.0625 -4.234375 C 5.269531 -4.210938 5.503906 -4.140625 5.765625 -4.015625 C 6.035156 -3.890625 6.269531 -3.679688 6.46875 -3.390625 C 6.675781 -3.109375 6.78125 -2.753906 6.78125 -2.328125 C 6.78125 -1.941406 6.691406 -1.570312 6.515625 -1.21875 C 6.347656 -0.863281 6.078125 -0.570312 5.703125 -0.34375 C 5.335938 -0.113281 4.875 0 4.3125 0 L 0.875 0 Z M 3.84375 -4.5625 C 4.28125 -4.5625 4.65625 -4.675781 4.96875 -4.90625 C 5.289062 -5.132812 5.453125 -5.488281 5.453125 -5.96875 C 5.453125 -6.425781 5.296875 -6.757812 4.984375 -6.96875 C 4.679688 -7.175781 4.300781 -7.28125 3.84375 -7.28125 L 1.84375 -7.28125 L 1.84375 -4.5625 Z M 4.0625 -0.84375 C 4.5625 -0.84375 4.976562 -0.957031 5.3125 -1.1875 C 5.644531 -1.425781 5.8125 -1.8125 5.8125 -2.34375 C 5.8125 -2.851562 5.644531 -3.21875 5.3125 -3.4375 C 4.976562 -3.664062 4.5625 -3.78125 4.0625 -3.78125 L 1.84375 -3.78125 L 1.84375 -0.84375 Z M 4.0625 -0.84375 "></path></g></g></g><g fill="#928b8b" fill-opacity="1"><g transform="translate(134.679764, 295.815713)"><g><path d="M 1.890625 -7.234375 L 1.890625 -4.5625 L 5.40625 -4.5625 L 5.40625 -3.75 L 1.890625 -3.75 L 1.890625 -0.90625 L 5.875 -0.90625 L 5.875 0 L 0.875 0 L 0.875 -8.140625 L 5.875 -8.140625 L 5.875 -7.234375 Z M 1.890625 -7.234375 "></path></g></g></g><g fill="#928b8b" fill-opacity="1"><g transform="translate(146.040863, 295.815713)"><g><path d="M 5.609375 -2.375 L 2.296875 -2.375 L 1.4375 0 L 0.421875 0 L 3.46875 -8.140625 L 4.421875 -8.140625 L 7.515625 0 L 6.484375 0 Z M 5.328125 -3.171875 L 3.96875 -6.859375 L 3.921875 -6.859375 L 2.59375 -3.171875 Z M 5.328125 -3.171875 "></path></g></g></g><g fill="#928b8b" fill-opacity="1"><g transform="translate(158.692351, 295.815713)"><g><path d="M 3.984375 0.109375 C 2.941406 0.109375 2.140625 -0.207031 1.578125 -0.84375 C 1.023438 -1.488281 0.75 -2.398438 0.75 -3.578125 L 0.75 -8.140625 L 1.75 -8.140625 L 1.75 -3.609375 C 1.75 -2.929688 1.894531 -2.300781 2.1875 -1.71875 C 2.488281 -1.144531 3.085938 -0.859375 3.984375 -0.859375 C 4.867188 -0.859375 5.457031 -1.144531 5.75 -1.71875 C 6.050781 -2.289062 6.203125 -2.921875 6.203125 -3.609375 L 6.203125 -8.140625 L 7.1875 -8.140625 L 7.1875 -3.578125 C 7.1875 -2.398438 6.90625 -1.488281 6.34375 -0.84375 C 5.789062 -0.207031 5.003906 0.109375 3.984375 0.109375 Z M 3.984375 0.109375 "></path></g></g></g><g fill="#928b8b" fill-opacity="1"><g transform="translate(171.390337, 295.815713)"><g><path d="M 6.3125 -7.234375 L 3.921875 -7.234375 L 3.921875 0 L 2.921875 0 L 2.921875 -7.234375 L 0.515625 -7.234375 L 0.515625 -8.140625 L 6.3125 -8.140625 Z M 6.3125 -7.234375 "></path></g></g></g><g fill="#928b8b" fill-opacity="1"><g transform="translate(182.983945, 295.815713)"><g><path d="M 3.046875 0.015625 L 3.046875 -2.9375 L 0.390625 -8.140625 L 1.484375 -8.140625 L 3.515625 -4.0625 L 3.59375 -4.0625 L 5.609375 -8.140625 L 6.703125 -8.140625 L 4.0625 -2.9375 L 4.0625 0 Z M 3.046875 0.015625 "></path></g></g></g><g fill="#928b8b" fill-opacity="1"><g transform="translate(194.868176, 295.815713)"><g></g></g></g><g fill="#928b8b" fill-opacity="1"><g transform="translate(202.288387, 295.815713)"><g><path d="M 3.5625 0.09375 C 2.925781 0.09375 2.382812 -0.0351562 1.9375 -0.296875 C 1.5 -0.554688 1.164062 -0.890625 0.9375 -1.296875 C 0.71875 -1.710938 0.609375 -2.144531 0.609375 -2.59375 L 0.609375 -2.65625 L 1.703125 -2.65625 L 1.703125 -2.59375 C 1.703125 -2.320312 1.765625 -2.050781 1.890625 -1.78125 C 2.023438 -1.507812 2.226562 -1.28125 2.5 -1.09375 C 2.78125 -0.914062 3.140625 -0.828125 3.578125 -0.828125 C 4.085938 -0.828125 4.507812 -0.957031 4.84375 -1.21875 C 5.175781 -1.476562 5.34375 -1.835938 5.34375 -2.296875 C 5.34375 -2.660156 5.21875 -2.953125 4.96875 -3.171875 C 4.726562 -3.398438 4.421875 -3.550781 4.046875 -3.625 L 2.859375 -3.84375 C 1.492188 -4.144531 0.8125 -4.863281 0.8125 -6 C 0.8125 -6.46875 0.921875 -6.875 1.140625 -7.21875 C 1.367188 -7.570312 1.679688 -7.84375 2.078125 -8.03125 C 2.484375 -8.21875 2.945312 -8.3125 3.46875 -8.3125 C 4.070312 -8.3125 4.585938 -8.191406 5.015625 -7.953125 C 5.441406 -7.710938 5.757812 -7.398438 5.96875 -7.015625 C 6.1875 -6.628906 6.296875 -6.234375 6.296875 -5.828125 L 6.296875 -5.78125 L 5.203125 -5.78125 L 5.203125 -5.8125 C 5.203125 -6.039062 5.144531 -6.273438 5.03125 -6.515625 C 4.914062 -6.765625 4.726562 -6.976562 4.46875 -7.15625 C 4.207031 -7.332031 3.863281 -7.421875 3.4375 -7.421875 C 2.945312 -7.421875 2.554688 -7.285156 2.265625 -7.015625 C 1.984375 -6.742188 1.84375 -6.410156 1.84375 -6.015625 C 1.84375 -5.671875 1.953125 -5.390625 2.171875 -5.171875 C 2.398438 -4.953125 2.707031 -4.804688 3.09375 -4.734375 L 4.15625 -4.515625 C 5.65625 -4.210938 6.40625 -3.484375 6.40625 -2.328125 C 6.40625 -1.847656 6.285156 -1.425781 6.046875 -1.0625 C 5.816406 -0.695312 5.484375 -0.410156 5.046875 -0.203125 C 4.609375 -0.00390625 4.113281 0.09375 3.5625 0.09375 Z M 3.5625 0.09375 "></path></g></g></g><g fill="#928b8b" fill-opacity="1"><g transform="translate(213.998244, 295.815713)"><g><path d="M 6.3125 -7.234375 L 3.921875 -7.234375 L 3.921875 0 L 2.921875 0 L 2.921875 -7.234375 L 0.515625 -7.234375 L 0.515625 -8.140625 L 6.3125 -8.140625 Z M 6.3125 -7.234375 "></path></g></g></g><g fill="#928b8b" fill-opacity="1"><g transform="translate(225.591852, 295.815713)"><g><path d="M 3.984375 0.109375 C 2.941406 0.109375 2.140625 -0.207031 1.578125 -0.84375 C 1.023438 -1.488281 0.75 -2.398438 0.75 -3.578125 L 0.75 -8.140625 L 1.75 -8.140625 L 1.75 -3.609375 C 1.75 -2.929688 1.894531 -2.300781 2.1875 -1.71875 C 2.488281 -1.144531 3.085938 -0.859375 3.984375 -0.859375 C 4.867188 -0.859375 5.457031 -1.144531 5.75 -1.71875 C 6.050781 -2.289062 6.203125 -2.921875 6.203125 -3.609375 L 6.203125 -8.140625 L 7.1875 -8.140625 L 7.1875 -3.578125 C 7.1875 -2.398438 6.90625 -1.488281 6.34375 -0.84375 C 5.789062 -0.207031 5.003906 0.109375 3.984375 0.109375 Z M 3.984375 0.109375 "></path></g></g></g><g fill="#928b8b" fill-opacity="1"><g transform="translate(238.289838, 295.815713)"><g><path d="M 0.875 -8.140625 L 3.84375 -8.140625 C 4.570312 -8.140625 5.207031 -7.972656 5.75 -7.640625 C 6.300781 -7.316406 6.722656 -6.847656 7.015625 -6.234375 C 7.316406 -5.628906 7.46875 -4.910156 7.46875 -4.078125 C 7.46875 -3.253906 7.316406 -2.53125 7.015625 -1.90625 C 6.722656 -1.289062 6.300781 -0.816406 5.75 -0.484375 C 5.195312 -0.160156 4.5625 0 3.84375 0 L 0.875 0 Z M 3.703125 -0.9375 C 4.515625 -0.9375 5.171875 -1.203125 5.671875 -1.734375 C 6.171875 -2.273438 6.421875 -3.054688 6.421875 -4.078125 C 6.421875 -5.097656 6.171875 -5.878906 5.671875 -6.421875 C 5.179688 -6.960938 4.523438 -7.234375 3.703125 -7.234375 L 1.84375 -7.234375 L 1.84375 -0.9375 Z M 3.703125 -0.9375 "></path></g></g></g><g fill="#928b8b" fill-opacity="1"><g transform="translate(251.022694, 295.815713)"><g><path d="M 0.90625 -8.140625 L 1.921875 -8.140625 L 1.921875 0 L 0.90625 0 Z M 0.90625 -8.140625 "></path></g></g></g><g fill="#928b8b" fill-opacity="1"><g transform="translate(258.594024, 295.815713)"><g><path d="M 4.28125 0.078125 C 3.5 0.078125 2.832031 -0.0976562 2.28125 -0.453125 C 1.726562 -0.804688 1.304688 -1.300781 1.015625 -1.9375 C 0.734375 -2.570312 0.59375 -3.296875 0.59375 -4.109375 C 0.59375 -4.910156 0.738281 -5.628906 1.03125 -6.265625 C 1.320312 -6.910156 1.742188 -7.410156 2.296875 -7.765625 C 2.847656 -8.128906 3.507812 -8.3125 4.28125 -8.3125 C 5.039062 -8.3125 5.691406 -8.128906 6.234375 -7.765625 C 6.785156 -7.410156 7.203125 -6.914062 7.484375 -6.28125 C 7.773438 -5.644531 7.921875 -4.914062 7.921875 -4.09375 C 7.921875 -3.28125 7.773438 -2.554688 7.484375 -1.921875 C 7.203125 -1.296875 6.785156 -0.804688 6.234375 -0.453125 C 5.691406 -0.0976562 5.039062 0.078125 4.28125 0.078125 Z M 4.265625 -0.84375 C 4.796875 -0.84375 5.257812 -0.976562 5.65625 -1.25 C 6.050781 -1.53125 6.351562 -1.914062 6.5625 -2.40625 C 6.769531 -2.90625 6.875 -3.472656 6.875 -4.109375 C 6.875 -4.742188 6.769531 -5.3125 6.5625 -5.8125 C 6.351562 -6.3125 6.050781 -6.695312 5.65625 -6.96875 C 5.257812 -7.25 4.796875 -7.390625 4.265625 -7.390625 C 3.734375 -7.390625 3.269531 -7.25 2.875 -6.96875 C 2.476562 -6.6875 2.175781 -6.296875 1.96875 -5.796875 C 1.757812 -5.304688 1.65625 -4.742188 1.65625 -4.109375 C 1.65625 -3.472656 1.757812 -2.910156 1.96875 -2.421875 C 2.175781 -1.929688 2.476562 -1.546875 2.875 -1.265625 C 3.269531 -0.984375 3.734375 -0.84375 4.265625 -0.84375 Z M 4.265625 -0.84375 "></path></g></g></g><g fill="#bfbbbb" fill-opacity="1"><g transform="translate(39.307575, 276.263799)"><g><path d="M 6.203125 -0.5 C 6.253906 -0.5 6.28125 -0.460938 6.28125 -0.390625 L 6.28125 -0.09375 C 6.28125 -0.03125 6.253906 0 6.203125 0 L 0.421875 0 C 0.359375 0 0.328125 -0.03125 0.328125 -0.09375 L 0.328125 -0.390625 C 0.328125 -0.460938 0.359375 -0.5 0.421875 -0.5 C 1.773438 -0.5 2.507812 -1.078125 2.625 -2.234375 C 2.65625 -2.578125 2.6875 -3.140625 2.71875 -3.921875 C 2.757812 -4.710938 2.867188 -6.410156 3.046875 -9.015625 C 3.234375 -11.617188 3.328125 -13.722656 3.328125 -15.328125 L 3.328125 -15.796875 C 3.328125 -16.117188 3.140625 -16.390625 2.765625 -16.609375 C 2.390625 -16.835938 2.113281 -16.953125 1.9375 -16.953125 C 1.769531 -16.953125 1.6875 -16.984375 1.6875 -17.046875 L 1.6875 -17.34375 C 1.6875 -17.414062 1.71875 -17.453125 1.78125 -17.453125 L 5.359375 -17.453125 C 5.515625 -17.421875 5.640625 -17.328125 5.734375 -17.171875 L 11.546875 -4.25 C 11.585938 -4.1875 11.617188 -4.132812 11.640625 -4.09375 C 11.671875 -4.050781 11.734375 -4.03125 11.828125 -4.03125 C 11.929688 -4.039062 12.003906 -4.113281 12.046875 -4.25 L 17.796875 -16.953125 C 17.972656 -17.285156 18.128906 -17.453125 18.265625 -17.453125 L 21.859375 -17.453125 C 21.929688 -17.453125 21.96875 -17.414062 21.96875 -17.34375 L 21.96875 -17.046875 C 21.96875 -16.984375 21.945312 -16.953125 21.90625 -16.953125 C 21.65625 -16.953125 21.347656 -16.867188 20.984375 -16.703125 C 20.429688 -16.453125 20.15625 -16.085938 20.15625 -15.609375 L 20.90625 -1.9375 C 20.914062 -1.5 21.132812 -1.148438 21.5625 -0.890625 C 22 -0.628906 22.5625 -0.5 23.25 -0.5 C 23.3125 -0.5 23.34375 -0.460938 23.34375 -0.390625 L 23.34375 -0.09375 C 23.34375 -0.03125 23.3125 0 23.25 0 L 16.21875 0 C 16.15625 0 16.125 -0.03125 16.125 -0.09375 L 16.125 -0.390625 C 16.125 -0.460938 16.15625 -0.5 16.21875 -0.5 C 17.695312 -0.5 18.4375 -0.859375 18.4375 -1.578125 L 17.78125 -13.390625 C 17.769531 -13.472656 17.742188 -13.515625 17.703125 -13.515625 C 17.671875 -13.515625 17.644531 -13.476562 17.625 -13.40625 L 11.46875 -0.09375 C 11.4375 -0.03125 11.34375 0 11.1875 0 C 11.03125 0 10.941406 -0.03125 10.921875 -0.09375 L 4.84375 -13.4375 C 4.800781 -13.550781 4.753906 -13.609375 4.703125 -13.609375 C 4.660156 -13.609375 4.640625 -13.519531 4.640625 -13.34375 C 4.640625 -12.957031 4.539062 -11.164062 4.34375 -7.96875 C 4.144531 -4.769531 4.046875 -2.773438 4.046875 -1.984375 L 4.046875 -1.46875 C 4.140625 -1 4.601562 -0.695312 5.4375 -0.5625 C 5.675781 -0.519531 5.929688 -0.5 6.203125 -0.5 Z M 6.203125 -0.5 "></path></g></g></g><g fill="#bfbbbb" fill-opacity="1"><g transform="translate(66.66931, 276.263799)"><g><path d="M 6.578125 -0.09375 C 6.578125 -0.03125 6.546875 0 6.484375 0 L 0.15625 0 C 0.09375 0 0.0625 -0.03125 0.0625 -0.09375 L 0.0625 -0.390625 C 0.0625 -0.460938 0.113281 -0.5 0.21875 -0.5 C 1.351562 -0.539062 2.117188 -1.140625 2.515625 -2.296875 L 7.5625 -16.921875 C 7.570312 -16.929688 7.578125 -16.953125 7.578125 -16.984375 L 7.4375 -17.390625 C 7.4375 -17.429688 7.453125 -17.453125 7.484375 -17.453125 L 9.96875 -17.453125 C 9.976562 -17.441406 10 -17.429688 10.03125 -17.421875 C 10.0625 -17.410156 10.082031 -17.382812 10.09375 -17.34375 L 15.328125 -2.65625 C 15.441406 -2.4375 15.535156 -2.234375 15.609375 -2.046875 C 15.679688 -1.867188 15.765625 -1.707031 15.859375 -1.5625 C 16.054688 -1.21875 16.378906 -0.957031 16.828125 -0.78125 C 17.210938 -0.59375 17.5625 -0.5 17.875 -0.5 C 17.9375 -0.5 17.96875 -0.460938 17.96875 -0.390625 L 17.96875 -0.09375 C 17.96875 -0.03125 17.9375 0 17.875 0 L 10.296875 0 C 10.234375 0 10.203125 -0.03125 10.203125 -0.09375 L 10.203125 -0.390625 C 10.203125 -0.460938 10.351562 -0.503906 10.65625 -0.515625 C 10.957031 -0.535156 11.207031 -0.550781 11.40625 -0.5625 C 12.550781 -0.6875 13.125 -1.078125 13.125 -1.734375 C 13.125 -1.785156 13.117188 -1.84375 13.109375 -1.90625 L 11.234375 -7.171875 C 11.222656 -7.191406 11.207031 -7.226562 11.1875 -7.28125 C 11.082031 -7.5625 10.910156 -7.703125 10.671875 -7.703125 L 6.28125 -7.703125 C 6.03125 -7.703125 5.832031 -7.566406 5.6875 -7.296875 C 5.664062 -7.242188 5.65625 -7.210938 5.65625 -7.203125 L 3.796875 -1.765625 L 3.796875 -1.65625 C 3.796875 -1.445312 3.910156 -1.253906 4.140625 -1.078125 C 4.640625 -0.691406 5.3125 -0.5 6.15625 -0.5 L 6.484375 -0.5 C 6.546875 -0.5 6.578125 -0.460938 6.578125 -0.390625 Z M 10.25 -9.078125 C 10.394531 -9.078125 10.46875 -9.140625 10.46875 -9.265625 C 10.46875 -9.335938 10.453125 -9.410156 10.421875 -9.484375 L 8.578125 -14.5625 C 8.492188 -14.789062 8.429688 -14.90625 8.390625 -14.90625 C 8.347656 -14.90625 8.28125 -14.785156 8.1875 -14.546875 L 6.453125 -9.484375 C 6.421875 -9.410156 6.40625 -9.320312 6.40625 -9.21875 C 6.40625 -9.125 6.46875 -9.078125 6.59375 -9.078125 Z M 10.25 -9.078125 "></path></g></g></g><g fill="#bfbbbb" fill-opacity="1"><g transform="translate(88.191903, 276.263799)"><g><path d="M 0.5625 -17.390625 C 0.5625 -17.453125 0.59375 -17.484375 0.65625 -17.484375 L 0.921875 -17.484375 L 4.90625 -17.578125 C 5.382812 -17.585938 5.898438 -17.59375 6.453125 -17.59375 L 8 -17.59375 C 9.4375 -17.59375 10.515625 -17.539062 11.234375 -17.4375 C 11.960938 -17.332031 12.675781 -17.207031 13.375 -17.0625 C 14.070312 -16.914062 14.8125 -16.585938 15.59375 -16.078125 C 16.382812 -15.566406 17.066406 -14.945312 17.640625 -14.21875 C 18.867188 -12.664062 19.484375 -10.988281 19.484375 -9.1875 C 19.484375 -7.394531 19.007812 -5.785156 18.0625 -4.359375 C 16.707031 -2.285156 14.75 -0.929688 12.1875 -0.296875 C 11.375 -0.0976562 10.535156 0 9.671875 0 L 0.65625 0 C 0.59375 0 0.5625 -0.03125 0.5625 -0.09375 L 0.5625 -0.453125 C 0.5625 -0.515625 0.59375 -0.546875 0.65625 -0.546875 L 0.921875 -0.546875 C 2.429688 -0.546875 3.1875 -1.023438 3.1875 -1.984375 L 3.1875 -15.546875 C 3.1875 -16.003906 3.003906 -16.347656 2.640625 -16.578125 C 2.285156 -16.816406 1.890625 -16.9375 1.453125 -16.9375 L 0.65625 -16.9375 C 0.59375 -16.9375 0.5625 -16.972656 0.5625 -17.046875 Z M 5.90625 -17.015625 C 5.695312 -17.015625 5.59375 -16.90625 5.59375 -16.6875 L 5.59375 -1.546875 C 5.59375 -0.929688 6.164062 -0.613281 7.3125 -0.59375 C 7.65625 -0.582031 8.007812 -0.578125 8.375 -0.578125 C 11.007812 -0.578125 13.078125 -1.316406 14.578125 -2.796875 C 16.085938 -4.273438 16.84375 -6.238281 16.84375 -8.6875 C 16.84375 -11.144531 16.144531 -13.144531 14.75 -14.6875 C 13.363281 -16.238281 11.535156 -17.015625 9.265625 -17.015625 Z M 5.90625 -17.015625 "></path></g></g></g><g fill="#bfbbbb" fill-opacity="1"><g transform="translate(112.275306, 276.263799)"><g><path d="M 6.578125 -0.09375 C 6.578125 -0.03125 6.546875 0 6.484375 0 L 0.15625 0 C 0.09375 0 0.0625 -0.03125 0.0625 -0.09375 L 0.0625 -0.390625 C 0.0625 -0.460938 0.113281 -0.5 0.21875 -0.5 C 1.351562 -0.539062 2.117188 -1.140625 2.515625 -2.296875 L 7.5625 -16.921875 C 7.570312 -16.929688 7.578125 -16.953125 7.578125 -16.984375 L 7.4375 -17.390625 C 7.4375 -17.429688 7.453125 -17.453125 7.484375 -17.453125 L 9.96875 -17.453125 C 9.976562 -17.441406 10 -17.429688 10.03125 -17.421875 C 10.0625 -17.410156 10.082031 -17.382812 10.09375 -17.34375 L 15.328125 -2.65625 C 15.441406 -2.4375 15.535156 -2.234375 15.609375 -2.046875 C 15.679688 -1.867188 15.765625 -1.707031 15.859375 -1.5625 C 16.054688 -1.21875 16.378906 -0.957031 16.828125 -0.78125 C 17.210938 -0.59375 17.5625 -0.5 17.875 -0.5 C 17.9375 -0.5 17.96875 -0.460938 17.96875 -0.390625 L 17.96875 -0.09375 C 17.96875 -0.03125 17.9375 0 17.875 0 L 10.296875 0 C 10.234375 0 10.203125 -0.03125 10.203125 -0.09375 L 10.203125 -0.390625 C 10.203125 -0.460938 10.351562 -0.503906 10.65625 -0.515625 C 10.957031 -0.535156 11.207031 -0.550781 11.40625 -0.5625 C 12.550781 -0.6875 13.125 -1.078125 13.125 -1.734375 C 13.125 -1.785156 13.117188 -1.84375 13.109375 -1.90625 L 11.234375 -7.171875 C 11.222656 -7.191406 11.207031 -7.226562 11.1875 -7.28125 C 11.082031 -7.5625 10.910156 -7.703125 10.671875 -7.703125 L 6.28125 -7.703125 C 6.03125 -7.703125 5.832031 -7.566406 5.6875 -7.296875 C 5.664062 -7.242188 5.65625 -7.210938 5.65625 -7.203125 L 3.796875 -1.765625 L 3.796875 -1.65625 C 3.796875 -1.445312 3.910156 -1.253906 4.140625 -1.078125 C 4.640625 -0.691406 5.3125 -0.5 6.15625 -0.5 L 6.484375 -0.5 C 6.546875 -0.5 6.578125 -0.460938 6.578125 -0.390625 Z M 10.25 -9.078125 C 10.394531 -9.078125 10.46875 -9.140625 10.46875 -9.265625 C 10.46875 -9.335938 10.453125 -9.410156 10.421875 -9.484375 L 8.578125 -14.5625 C 8.492188 -14.789062 8.429688 -14.90625 8.390625 -14.90625 C 8.347656 -14.90625 8.28125 -14.785156 8.1875 -14.546875 L 6.453125 -9.484375 C 6.421875 -9.410156 6.40625 -9.320312 6.40625 -9.21875 C 6.40625 -9.125 6.46875 -9.078125 6.59375 -9.078125 Z M 10.25 -9.078125 "></path></g></g></g><g fill="#bfbbbb" fill-opacity="1"><g transform="translate(133.797899, 276.263799)"><g><path d="M 6.203125 -0.5 C 6.253906 -0.5 6.28125 -0.460938 6.28125 -0.390625 L 6.28125 -0.09375 C 6.28125 -0.03125 6.253906 0 6.203125 0 L 0.421875 0 C 0.359375 0 0.328125 -0.03125 0.328125 -0.09375 L 0.328125 -0.390625 C 0.328125 -0.460938 0.359375 -0.5 0.421875 -0.5 C 1.773438 -0.5 2.507812 -1.078125 2.625 -2.234375 C 2.65625 -2.578125 2.6875 -3.140625 2.71875 -3.921875 C 2.757812 -4.710938 2.867188 -6.410156 3.046875 -9.015625 C 3.234375 -11.617188 3.328125 -13.722656 3.328125 -15.328125 L 3.328125 -15.796875 C 3.328125 -16.117188 3.140625 -16.390625 2.765625 -16.609375 C 2.390625 -16.835938 2.113281 -16.953125 1.9375 -16.953125 C 1.769531 -16.953125 1.6875 -16.984375 1.6875 -17.046875 L 1.6875 -17.34375 C 1.6875 -17.414062 1.71875 -17.453125 1.78125 -17.453125 L 5.359375 -17.453125 C 5.515625 -17.421875 5.640625 -17.328125 5.734375 -17.171875 L 11.546875 -4.25 C 11.585938 -4.1875 11.617188 -4.132812 11.640625 -4.09375 C 11.671875 -4.050781 11.734375 -4.03125 11.828125 -4.03125 C 11.929688 -4.039062 12.003906 -4.113281 12.046875 -4.25 L 17.796875 -16.953125 C 17.972656 -17.285156 18.128906 -17.453125 18.265625 -17.453125 L 21.859375 -17.453125 C 21.929688 -17.453125 21.96875 -17.414062 21.96875 -17.34375 L 21.96875 -17.046875 C 21.96875 -16.984375 21.945312 -16.953125 21.90625 -16.953125 C 21.65625 -16.953125 21.347656 -16.867188 20.984375 -16.703125 C 20.429688 -16.453125 20.15625 -16.085938 20.15625 -15.609375 L 20.90625 -1.9375 C 20.914062 -1.5 21.132812 -1.148438 21.5625 -0.890625 C 22 -0.628906 22.5625 -0.5 23.25 -0.5 C 23.3125 -0.5 23.34375 -0.460938 23.34375 -0.390625 L 23.34375 -0.09375 C 23.34375 -0.03125 23.3125 0 23.25 0 L 16.21875 0 C 16.15625 0 16.125 -0.03125 16.125 -0.09375 L 16.125 -0.390625 C 16.125 -0.460938 16.15625 -0.5 16.21875 -0.5 C 17.695312 -0.5 18.4375 -0.859375 18.4375 -1.578125 L 17.78125 -13.390625 C 17.769531 -13.472656 17.742188 -13.515625 17.703125 -13.515625 C 17.671875 -13.515625 17.644531 -13.476562 17.625 -13.40625 L 11.46875 -0.09375 C 11.4375 -0.03125 11.34375 0 11.1875 0 C 11.03125 0 10.941406 -0.03125 10.921875 -0.09375 L 4.84375 -13.4375 C 4.800781 -13.550781 4.753906 -13.609375 4.703125 -13.609375 C 4.660156 -13.609375 4.640625 -13.519531 4.640625 -13.34375 C 4.640625 -12.957031 4.539062 -11.164062 4.34375 -7.96875 C 4.144531 -4.769531 4.046875 -2.773438 4.046875 -1.984375 L 4.046875 -1.46875 C 4.140625 -1 4.601562 -0.695312 5.4375 -0.5625 C 5.675781 -0.519531 5.929688 -0.5 6.203125 -0.5 Z M 6.203125 -0.5 "></path></g></g></g><g fill="#bfbbbb" fill-opacity="1"><g transform="translate(161.159634, 276.263799)"><g><path d="M 0.09375 -0.09375 L 0.09375 -0.453125 C 0.09375 -0.515625 0.125 -0.546875 0.1875 -0.546875 L 0.453125 -0.546875 C 0.804688 -0.566406 1.160156 -0.578125 1.515625 -0.578125 C 1.878906 -0.585938 2.210938 -0.632812 2.515625 -0.71875 C 3.191406 -0.914062 3.53125 -1.410156 3.53125 -2.203125 L 3.53125 -15.25 C 3.53125 -16.0625 3.046875 -16.582031 2.078125 -16.8125 C 1.804688 -16.863281 1.53125 -16.910156 1.25 -16.953125 L 0.984375 -16.953125 C 0.921875 -16.953125 0.890625 -16.984375 0.890625 -17.046875 L 0.890625 -17.34375 C 0.890625 -17.414062 0.921875 -17.453125 0.984375 -17.453125 L 12.765625 -17.453125 C 12.910156 -17.453125 13.015625 -17.421875 13.078125 -17.359375 C 13.140625 -17.304688 13.179688 -17.191406 13.203125 -17.015625 L 13.421875 -13.421875 C 13.421875 -13.335938 13.359375 -13.296875 13.234375 -13.296875 C 13.117188 -13.296875 13.03125 -13.335938 12.96875 -13.421875 C 12.914062 -13.492188 12.847656 -13.789062 12.765625 -14.3125 C 12.691406 -14.832031 12.550781 -15.265625 12.34375 -15.609375 C 12.144531 -15.960938 11.785156 -16.179688 11.265625 -16.265625 L 6.09375 -16.265625 C 5.988281 -16.265625 5.9375 -16.210938 5.9375 -16.109375 L 5.9375 -9.71875 C 5.9375 -9.632812 5.976562 -9.59375 6.0625 -9.59375 L 10.34375 -9.59375 C 11.445312 -9.59375 12 -10.234375 12 -11.515625 C 12 -11.585938 12.035156 -11.625 12.109375 -11.625 L 12.40625 -11.625 C 12.46875 -11.625 12.5 -11.585938 12.5 -11.515625 L 12.5 -6.21875 C 12.5 -6.15625 12.46875 -6.125 12.40625 -6.125 L 12.109375 -6.125 C 12.035156 -6.125 12 -6.15625 12 -6.21875 C 12 -7.445312 11.644531 -8.15625 10.9375 -8.34375 C 10.738281 -8.394531 10.53125 -8.421875 10.3125 -8.421875 L 6.0625 -8.421875 C 5.976562 -8.421875 5.9375 -8.378906 5.9375 -8.296875 L 5.9375 -2.265625 C 5.9375 -1.648438 6.222656 -1.300781 6.796875 -1.21875 C 6.960938 -1.1875 7.132812 -1.171875 7.3125 -1.171875 L 11.4375 -1.171875 C 12.28125 -1.171875 12.941406 -1.546875 13.421875 -2.296875 C 13.753906 -2.835938 13.957031 -3.453125 14.03125 -4.140625 C 14.050781 -4.367188 14.175781 -4.484375 14.40625 -4.484375 C 14.5 -4.484375 14.546875 -4.429688 14.546875 -4.328125 L 14.140625 -0.171875 C 14.085938 -0.0546875 14.03125 0 13.96875 0 L 0.1875 0 C 0.125 0 0.09375 -0.03125 0.09375 -0.09375 Z M 0.09375 -0.09375 "></path></g></g></g><g fill="#bfbbbb" fill-opacity="1"><g transform="translate(180.294612, 276.263799)"><g></g></g></g><g fill="#bfbbbb" fill-opacity="1"><g transform="translate(190.596651, 276.263799)"><g><path d="M 16.640625 -0.46875 C 16.597656 -0.40625 16.492188 -0.390625 16.328125 -0.421875 C 16.171875 -0.460938 15.984375 -0.484375 15.765625 -0.484375 C 15.554688 -0.484375 15.253906 -0.4375 14.859375 -0.34375 C 14.472656 -0.257812 13.859375 -0.128906 13.015625 0.046875 C 12.171875 0.234375 11.40625 0.328125 10.71875 0.328125 C 9.144531 0.328125 7.625 -0.0351562 6.15625 -0.765625 C 4.6875 -1.503906 3.507812 -2.550781 2.625 -3.90625 C 1.738281 -5.269531 1.296875 -6.847656 1.296875 -8.640625 C 1.296875 -10.429688 1.738281 -12.050781 2.625 -13.5 C 3.90625 -15.625 5.84375 -17.007812 8.4375 -17.65625 C 9.257812 -17.863281 10.085938 -17.96875 10.921875 -17.96875 C 12.046875 -17.96875 13.382812 -17.78125 14.9375 -17.40625 C 15.40625 -17.28125 15.800781 -17.15625 16.125 -17.03125 C 16.457031 -16.914062 16.660156 -16.859375 16.734375 -16.859375 L 17.109375 -16.953125 L 17.484375 -16.953125 C 17.585938 -16.953125 17.640625 -16.882812 17.640625 -16.75 L 17.640625 -12.890625 C 17.640625 -12.804688 17.5625 -12.765625 17.40625 -12.765625 C 17.257812 -12.765625 17.171875 -12.78125 17.140625 -12.8125 C 17.117188 -12.851562 17.097656 -12.898438 17.078125 -12.953125 C 17.054688 -13.015625 17.03125 -13.070312 17 -13.125 C 16.96875 -13.1875 16.9375 -13.238281 16.90625 -13.28125 C 16.875 -13.332031 16.859375 -13.375 16.859375 -13.40625 C 15.617188 -15.882812 13.738281 -17.125 11.21875 -17.125 C 8.957031 -17.125 7.1875 -16.398438 5.90625 -14.953125 C 4.625 -13.515625 3.984375 -11.601562 3.984375 -9.21875 C 3.984375 -6.84375 4.6875 -4.800781 6.09375 -3.09375 C 7.5 -1.382812 9.410156 -0.53125 11.828125 -0.53125 C 13.148438 -0.53125 14.351562 -0.921875 15.4375 -1.703125 C 16.519531 -2.492188 17.375 -3.457031 18 -4.59375 C 18.007812 -4.644531 18.054688 -4.671875 18.140625 -4.671875 L 18.296875 -4.671875 C 18.378906 -4.671875 18.421875 -4.617188 18.421875 -4.515625 C 18.421875 -4.421875 18.398438 -4.328125 18.359375 -4.234375 Z M 16.640625 -0.46875 "></path></g></g></g><g fill="#bfbbbb" fill-opacity="1"><g transform="translate(213.46769, 276.263799)"><g><path d="M 0.640625 0 C 0.578125 0 0.546875 -0.0820312 0.546875 -0.25 L 0.546875 -0.390625 C 0.546875 -0.460938 0.578125 -0.5 0.640625 -0.5 C 0.691406 -0.5 0.769531 -0.503906 0.875 -0.515625 C 0.988281 -0.535156 1.101562 -0.550781 1.21875 -0.5625 C 1.332031 -0.582031 1.4375 -0.601562 1.53125 -0.625 C 1.632812 -0.644531 1.707031 -0.660156 1.75 -0.671875 C 2.582031 -0.859375 3 -1.335938 3 -2.109375 L 3 -15.171875 C 3 -15.878906 2.71875 -16.382812 2.15625 -16.6875 C 1.8125 -16.863281 1.445312 -16.953125 1.0625 -16.953125 L 0.59375 -16.953125 C 0.53125 -16.953125 0.5 -16.984375 0.5 -17.046875 L 0.5 -17.34375 C 0.5 -17.414062 0.546875 -17.453125 0.640625 -17.453125 L 7.4375 -17.640625 L 8.6875 -17.640625 C 10.144531 -17.535156 11.363281 -17.003906 12.34375 -16.046875 C 13.332031 -15.085938 13.828125 -13.898438 13.828125 -12.484375 C 13.828125 -11.078125 13.242188 -9.984375 12.078125 -9.203125 C 11.710938 -8.960938 11.320312 -8.75 10.90625 -8.5625 L 14.65625 -2.4375 C 15.300781 -1.363281 16.175781 -0.609375 17.28125 -0.171875 C 17.363281 -0.148438 17.40625 -0.09375 17.40625 0 C 17.40625 0.207031 17.269531 0.3125 17 0.3125 C 15.144531 0.3125 13.671875 -0.394531 12.578125 -1.8125 C 12.335938 -2.125 12.097656 -2.472656 11.859375 -2.859375 L 8.65625 -7.875 L 5.703125 -8.015625 L 5.609375 -8.015625 C 5.484375 -8.015625 5.421875 -7.957031 5.421875 -7.84375 L 5.421875 -2.140625 C 5.421875 -1.679688 5.546875 -1.34375 5.796875 -1.125 C 6.054688 -0.90625 6.5 -0.753906 7.125 -0.671875 C 7.289062 -0.640625 7.492188 -0.601562 7.734375 -0.5625 C 7.972656 -0.519531 8.132812 -0.5 8.21875 -0.5 C 8.3125 -0.5 8.359375 -0.460938 8.359375 -0.390625 L 8.359375 -0.09375 C 8.359375 -0.03125 8.320312 0 8.25 0 Z M 6.421875 -16.984375 C 6.328125 -16.984375 6.222656 -16.976562 6.109375 -16.96875 C 5.992188 -16.96875 5.847656 -16.960938 5.671875 -16.953125 C 5.503906 -16.953125 5.421875 -16.882812 5.421875 -16.75 L 5.421875 -9.25 L 5.4375 -8.890625 C 5.46875 -8.710938 5.550781 -8.617188 5.6875 -8.609375 L 6.9375 -8.53125 C 9.257812 -8.53125 10.660156 -9.359375 11.140625 -11.015625 C 11.296875 -11.535156 11.375 -12.128906 11.375 -12.796875 C 11.375 -14.097656 10.96875 -15.125 10.15625 -15.875 C 9.34375 -16.625 8.304688 -17 7.046875 -17 C 6.929688 -17 6.820312 -16.992188 6.71875 -16.984375 C 6.625 -16.984375 6.523438 -16.984375 6.421875 -16.984375 Z M 6.421875 -16.984375 "></path></g></g></g><g fill="#bfbbbb" fill-opacity="1"><g transform="translate(234.520194, 276.263799)"><g><path d="M 3.125 -15.46875 C 3.125 -16.457031 2.550781 -16.953125 1.40625 -16.953125 C 1.226562 -16.953125 1.140625 -16.984375 1.140625 -17.046875 L 1.140625 -17.34375 C 1.140625 -17.414062 1.171875 -17.453125 1.234375 -17.453125 L 7.4375 -17.453125 C 7.5 -17.453125 7.53125 -17.414062 7.53125 -17.34375 L 7.53125 -17.046875 C 7.53125 -16.984375 7.347656 -16.953125 6.984375 -16.953125 C 6.628906 -16.953125 6.296875 -16.835938 5.984375 -16.609375 C 5.679688 -16.378906 5.53125 -15.90625 5.53125 -15.1875 L 5.53125 -1.984375 C 5.53125 -0.992188 6.101562 -0.5 7.25 -0.5 C 7.425781 -0.5 7.515625 -0.460938 7.515625 -0.390625 L 7.515625 -0.09375 C 7.515625 -0.03125 7.476562 0 7.40625 0 L 1.21875 0 C 1.144531 0 1.109375 -0.03125 1.109375 -0.09375 L 1.109375 -0.390625 C 1.109375 -0.460938 1.289062 -0.5 1.65625 -0.5 C 2.019531 -0.5 2.351562 -0.613281 2.65625 -0.84375 C 2.96875 -1.070312 3.125 -1.546875 3.125 -2.265625 Z M 3.125 -15.46875 "></path></g></g></g><g fill="#bfbbbb" fill-opacity="1"><g transform="translate(246.66551, 276.263799)"><g><path d="M 10.4375 -17.296875 C 10.519531 -17.296875 10.5625 -17.207031 10.5625 -17.03125 L 10.890625 -14.390625 C 10.921875 -14.222656 10.9375 -14.117188 10.9375 -14.078125 C 10.9375 -14.035156 10.875 -14.015625 10.75 -14.015625 C 10.625 -14.015625 10.539062 -14.03125 10.5 -14.0625 C 10.46875 -14.09375 10.4375 -14.144531 10.40625 -14.21875 C 10.375 -14.300781 10.332031 -14.390625 10.28125 -14.484375 C 10.238281 -14.585938 10.191406 -14.6875 10.140625 -14.78125 C 9.972656 -15.164062 9.703125 -15.546875 9.328125 -15.921875 C 8.421875 -16.785156 7.398438 -17.21875 6.265625 -17.21875 C 5.578125 -17.21875 4.925781 -16.992188 4.3125 -16.546875 C 3.707031 -16.109375 3.40625 -15.582031 3.40625 -14.96875 C 3.40625 -14.363281 3.515625 -13.835938 3.734375 -13.390625 C 3.960938 -12.953125 4.265625 -12.539062 4.640625 -12.15625 C 5.015625 -11.78125 5.441406 -11.421875 5.921875 -11.078125 C 6.398438 -10.734375 6.882812 -10.382812 7.375 -10.03125 C 8.6875 -9.113281 9.617188 -8.328125 10.171875 -7.671875 C 11.035156 -6.660156 11.503906 -5.53125 11.578125 -4.28125 C 11.578125 -2.875 11.039062 -1.753906 9.96875 -0.921875 C 8.894531 -0.0859375 7.644531 0.328125 6.21875 0.328125 C 5.300781 0.328125 4.570312 0.234375 4.03125 0.046875 C 3.488281 -0.128906 3.113281 -0.257812 2.90625 -0.34375 C 2.695312 -0.425781 2.546875 -0.46875 2.453125 -0.46875 C 2.359375 -0.46875 2.300781 -0.460938 2.28125 -0.453125 L 1.671875 -0.328125 C 1.566406 -0.328125 1.5 -0.414062 1.46875 -0.59375 C 1.226562 -2.632812 1.109375 -3.71875 1.109375 -3.84375 C 1.109375 -3.976562 1.117188 -4.066406 1.140625 -4.109375 C 1.160156 -4.160156 1.21875 -4.1875 1.3125 -4.1875 C 1.539062 -4.1875 1.75 -3.851562 1.9375 -3.1875 C 2.8125 -1.332031 4.253906 -0.40625 6.265625 -0.40625 C 7.179688 -0.40625 7.96875 -0.6875 8.625 -1.25 C 9.28125 -1.8125 9.609375 -2.539062 9.609375 -3.4375 C 9.609375 -4.875 8.753906 -6.210938 7.046875 -7.453125 C 6.554688 -7.796875 5.851562 -8.273438 4.9375 -8.890625 C 4.019531 -9.515625 3.289062 -10.132812 2.75 -10.75 C 1.894531 -11.707031 1.46875 -12.773438 1.46875 -13.953125 C 1.46875 -15.128906 1.9375 -16.09375 2.875 -16.84375 C 3.8125 -17.59375 4.882812 -17.96875 6.09375 -17.96875 C 6.726562 -17.96875 7.421875 -17.859375 8.171875 -17.640625 C 8.929688 -17.429688 9.457031 -17.289062 9.75 -17.21875 Z M 10.4375 -17.296875 "></path></g></g></g><g fill="#bfbbbb" fill-opacity="1"><g transform="translate(262.856175, 276.263799)"><g><path d="M 4.9375 -0.390625 C 4.9375 -0.460938 4.972656 -0.5 5.046875 -0.5 L 5.390625 -0.5 C 6.203125 -0.5 6.851562 -0.671875 7.34375 -1.015625 C 7.832031 -1.359375 8.078125 -1.765625 8.078125 -2.234375 L 8.078125 -15.921875 C 8.078125 -16.097656 8.039062 -16.195312 7.96875 -16.21875 C 7.90625 -16.238281 7.820312 -16.253906 7.71875 -16.265625 L 2.96875 -16.265625 C 2.195312 -16.109375 1.691406 -15.519531 1.453125 -14.5 C 1.328125 -13.957031 1.25 -13.609375 1.21875 -13.453125 C 1.195312 -13.304688 1.15625 -13.234375 1.09375 -13.234375 L 0.859375 -13.234375 C 0.816406 -13.234375 0.796875 -13.25 0.796875 -13.28125 L 0.796875 -13.6875 L 1.25 -17.546875 C 1.300781 -17.804688 1.382812 -17.9375 1.5 -17.9375 C 1.613281 -17.9375 1.734375 -17.851562 1.859375 -17.6875 C 1.992188 -17.53125 2.25 -17.453125 2.625 -17.453125 L 15.96875 -17.453125 C 16.320312 -17.453125 16.535156 -17.492188 16.609375 -17.578125 C 16.679688 -17.660156 16.75 -17.738281 16.8125 -17.8125 C 16.882812 -17.894531 16.96875 -17.9375 17.0625 -17.9375 C 17.164062 -17.9375 17.234375 -17.894531 17.265625 -17.8125 C 17.296875 -17.726562 17.320312 -17.640625 17.34375 -17.546875 L 17.796875 -13.6875 L 17.796875 -13.28125 C 17.796875 -13.25 17.769531 -13.234375 17.71875 -13.234375 L 17.5 -13.234375 C 17.4375 -13.234375 17.390625 -13.296875 17.359375 -13.421875 C 17.222656 -14.242188 17.03125 -14.894531 16.78125 -15.375 C 16.539062 -15.851562 16.148438 -16.148438 15.609375 -16.265625 L 10.859375 -16.265625 C 10.753906 -16.253906 10.664062 -16.238281 10.59375 -16.21875 C 10.53125 -16.195312 10.5 -16.097656 10.5 -15.921875 L 10.5 -2.234375 C 10.5 -1.765625 10.742188 -1.359375 11.234375 -1.015625 C 11.722656 -0.671875 12.367188 -0.5 13.171875 -0.5 L 13.53125 -0.5 C 13.601562 -0.5 13.640625 -0.460938 13.640625 -0.390625 L 13.640625 -0.09375 C 13.640625 -0.03125 13.601562 0 13.53125 0 L 5.03125 0 C 4.96875 0 4.9375 -0.03125 4.9375 -0.09375 Z M 4.9375 -0.390625 "></path></g></g></g><g fill="#bfbbbb" fill-opacity="1"><g transform="translate(284.935466, 276.263799)"><g><path d="M 3.125 -15.46875 C 3.125 -16.457031 2.550781 -16.953125 1.40625 -16.953125 C 1.226562 -16.953125 1.140625 -16.984375 1.140625 -17.046875 L 1.140625 -17.34375 C 1.140625 -17.414062 1.171875 -17.453125 1.234375 -17.453125 L 7.4375 -17.453125 C 7.5 -17.453125 7.53125 -17.414062 7.53125 -17.34375 L 7.53125 -17.046875 C 7.53125 -16.984375 7.347656 -16.953125 6.984375 -16.953125 C 6.628906 -16.953125 6.296875 -16.835938 5.984375 -16.609375 C 5.679688 -16.378906 5.53125 -15.90625 5.53125 -15.1875 L 5.53125 -1.984375 C 5.53125 -0.992188 6.101562 -0.5 7.25 -0.5 C 7.425781 -0.5 7.515625 -0.460938 7.515625 -0.390625 L 7.515625 -0.09375 C 7.515625 -0.03125 7.476562 0 7.40625 0 L 1.21875 0 C 1.144531 0 1.109375 -0.03125 1.109375 -0.09375 L 1.109375 -0.390625 C 1.109375 -0.460938 1.289062 -0.5 1.65625 -0.5 C 2.019531 -0.5 2.351562 -0.613281 2.65625 -0.84375 C 2.96875 -1.070312 3.125 -1.546875 3.125 -2.265625 Z M 3.125 -15.46875 "></path></g></g></g><g fill="#bfbbbb" fill-opacity="1"><g transform="translate(297.080782, 276.263799)"><g><path d="M 0.84375 0 C 0.78125 0 0.75 -0.03125 0.75 -0.09375 L 0.75 -0.390625 C 0.75 -0.460938 0.785156 -0.5 0.859375 -0.5 L 1.15625 -0.5 C 1.601562 -0.5 1.910156 -0.539062 2.078125 -0.625 C 2.691406 -0.914062 3 -1.726562 3 -3.0625 L 3 -15.921875 C 3 -16.472656 2.460938 -16.804688 1.390625 -16.921875 C 1.148438 -16.941406 0.984375 -16.953125 0.890625 -16.953125 C 0.796875 -16.953125 0.75 -16.984375 0.75 -17.046875 L 0.75 -17.34375 C 0.75 -17.414062 0.78125 -17.453125 0.84375 -17.453125 L 5.375 -17.453125 L 17.109375 -4.46875 C 17.148438 -4.425781 17.175781 -4.394531 17.1875 -4.375 C 17.207031 -4.351562 17.238281 -4.34375 17.28125 -4.34375 C 17.320312 -4.34375 17.34375 -4.378906 17.34375 -4.453125 L 17.34375 -12.984375 C 17.34375 -14.617188 17.203125 -15.6875 16.921875 -16.1875 C 16.648438 -16.695312 16.101562 -16.953125 15.28125 -16.953125 L 14.65625 -16.953125 C 14.582031 -16.953125 14.546875 -16.984375 14.546875 -17.046875 L 14.546875 -17.34375 C 14.546875 -17.414062 14.582031 -17.453125 14.65625 -17.453125 L 21.09375 -17.453125 C 21.15625 -17.453125 21.1875 -17.414062 21.1875 -17.34375 L 21.1875 -17.046875 C 21.1875 -16.984375 21.0625 -16.953125 20.8125 -16.953125 C 20.570312 -16.953125 20.171875 -16.8125 19.609375 -16.53125 C 19.054688 -16.25 18.78125 -15.90625 18.78125 -15.5 L 18.78125 -0.359375 C 18.78125 -0.179688 18.753906 -0.0507812 18.703125 0.03125 C 18.660156 0.113281 18.546875 0.15625 18.359375 0.15625 C 18.171875 0.15625 18.03125 0.113281 17.9375 0.03125 C 17.851562 -0.0390625 17.75 -0.144531 17.625 -0.28125 L 4.859375 -14.421875 C 4.773438 -14.503906 4.703125 -14.546875 4.640625 -14.546875 C 4.597656 -14.546875 4.578125 -14.503906 4.578125 -14.421875 L 4.578125 -2.078125 C 4.578125 -1.328125 5.171875 -0.832031 6.359375 -0.59375 C 6.691406 -0.53125 6.941406 -0.5 7.109375 -0.5 C 7.285156 -0.5 7.375 -0.460938 7.375 -0.390625 L 7.375 -0.09375 C 7.375 -0.03125 7.34375 0 7.28125 0 Z M 0.84375 0 "></path></g></g></g><g fill="#bfbbbb" fill-opacity="1"><g transform="translate(322.190995, 276.263799)"><g><path d="M 6.578125 -0.09375 C 6.578125 -0.03125 6.546875 0 6.484375 0 L 0.15625 0 C 0.09375 0 0.0625 -0.03125 0.0625 -0.09375 L 0.0625 -0.390625 C 0.0625 -0.460938 0.113281 -0.5 0.21875 -0.5 C 1.351562 -0.539062 2.117188 -1.140625 2.515625 -2.296875 L 7.5625 -16.921875 C 7.570312 -16.929688 7.578125 -16.953125 7.578125 -16.984375 L 7.4375 -17.390625 C 7.4375 -17.429688 7.453125 -17.453125 7.484375 -17.453125 L 9.96875 -17.453125 C 9.976562 -17.441406 10 -17.429688 10.03125 -17.421875 C 10.0625 -17.410156 10.082031 -17.382812 10.09375 -17.34375 L 15.328125 -2.65625 C 15.441406 -2.4375 15.535156 -2.234375 15.609375 -2.046875 C 15.679688 -1.867188 15.765625 -1.707031 15.859375 -1.5625 C 16.054688 -1.21875 16.378906 -0.957031 16.828125 -0.78125 C 17.210938 -0.59375 17.5625 -0.5 17.875 -0.5 C 17.9375 -0.5 17.96875 -0.460938 17.96875 -0.390625 L 17.96875 -0.09375 C 17.96875 -0.03125 17.9375 0 17.875 0 L 10.296875 0 C 10.234375 0 10.203125 -0.03125 10.203125 -0.09375 L 10.203125 -0.390625 C 10.203125 -0.460938 10.351562 -0.503906 10.65625 -0.515625 C 10.957031 -0.535156 11.207031 -0.550781 11.40625 -0.5625 C 12.550781 -0.6875 13.125 -1.078125 13.125 -1.734375 C 13.125 -1.785156 13.117188 -1.84375 13.109375 -1.90625 L 11.234375 -7.171875 C 11.222656 -7.191406 11.207031 -7.226562 11.1875 -7.28125 C 11.082031 -7.5625 10.910156 -7.703125 10.671875 -7.703125 L 6.28125 -7.703125 C 6.03125 -7.703125 5.832031 -7.566406 5.6875 -7.296875 C 5.664062 -7.242188 5.65625 -7.210938 5.65625 -7.203125 L 3.796875 -1.765625 L 3.796875 -1.65625 C 3.796875 -1.445312 3.910156 -1.253906 4.140625 -1.078125 C 4.640625 -0.691406 5.3125 -0.5 6.15625 -0.5 L 6.484375 -0.5 C 6.546875 -0.5 6.578125 -0.460938 6.578125 -0.390625 Z M 10.25 -9.078125 C 10.394531 -9.078125 10.46875 -9.140625 10.46875 -9.265625 C 10.46875 -9.335938 10.453125 -9.410156 10.421875 -9.484375 L 8.578125 -14.5625 C 8.492188 -14.789062 8.429688 -14.90625 8.390625 -14.90625 C 8.347656 -14.90625 8.28125 -14.785156 8.1875 -14.546875 L 6.453125 -9.484375 C 6.421875 -9.410156 6.40625 -9.320312 6.40625 -9.21875 C 6.40625 -9.125 6.46875 -9.078125 6.59375 -9.078125 Z M 10.25 -9.078125 "></path></g></g></g><g fill="#bfbbbb" fill-opacity="1"><g transform="translate(343.713809, 276.263799)"><g></g></g></g></svg></svg></g></g></svg>